<svg width="14" height="14" viewBox="0 0 14 14" fill="none" xmlns="http://www.w3.org/2000/svg">
<path d="M6.99902 0C10.865 0 13.999 3.13401 13.999 7C13.999 10.866 10.865 14 6.99902 14C3.13303 14 -0.000976562 10.866 -0.000976562 7C-0.000976562 3.13401 3.13303 0 6.99902 0ZM11.0283 4.46777C10.7344 4.17601 10.2596 4.17782 9.96777 4.47168L6.03125 8.43555L4.53223 6.92578C4.24035 6.63199 3.76555 6.63103 3.47168 6.92285C3.17793 7.21474 3.17596 7.68954 3.46777 7.9834L5.49902 10.0283C5.63981 10.17 5.83149 10.25 6.03125 10.25C6.23102 10.25 6.42271 10.1701 6.56348 10.0283L11.0322 5.52832C11.3239 5.23444 11.3221 4.75961 11.0283 4.46777Z" fill="#14AE5C"/>
<path d="M6.99902 0C10.865 0 13.999 3.13401 13.999 7C13.999 10.866 10.865 14 6.99902 14C3.13303 14 -0.000976562 10.866 -0.000976562 7C-0.000976562 3.13401 3.13303 0 6.99902 0ZM11.0283 4.46777C10.7344 4.17601 10.2596 4.17782 9.96777 4.47168L6.03125 8.43555L4.53223 6.92578C4.24035 6.63199 3.76555 6.63103 3.47168 6.92285C3.17793 7.21474 3.17596 7.68954 3.46777 7.9834L5.49902 10.0283C5.63981 10.17 5.83149 10.25 6.03125 10.25C6.23102 10.25 6.42271 10.1701 6.56348 10.0283L11.0322 5.52832C11.3239 5.23444 11.3221 4.75961 11.0283 4.46777Z" stroke="#14AE5C"/>
</svg>
