<svg width="63" height="56" viewBox="0 0 63 56" fill="none" xmlns="http://www.w3.org/2000/svg">
<path d="M8.24593 32.1549H5.63482C5.63482 36.4457 9.12592 39.9359 13.4158 39.9359V37.3248C10.5655 37.3248 8.24593 35.0061 8.24593 32.1559V32.1549Z" fill="#3A238C"/>
<path d="M7.52482 25.0933L6.21881 22.8315C2.50298 24.9769 1.22586 29.7451 3.37124 33.461L5.63305 32.1549C4.20791 29.6864 5.05632 26.5185 7.52482 25.0933Z" fill="#3A238C"/>
<path d="M19.7554 23.8451H22.3665C22.3665 19.5543 18.8754 16.0641 14.5855 16.0641V18.6752C17.4358 18.6752 19.7554 20.9939 19.7554 23.8442V23.8451Z" fill="#3A238C"/>
<path d="M14.7218 35.0612L13.4158 37.323C17.1316 39.4684 21.8998 38.1904 24.0443 34.4745L21.7825 33.1685C20.3574 35.637 17.1894 36.4863 14.7209 35.0612H14.7218Z" fill="#3A238C"/>
<path d="M13.2795 20.9379L14.5855 18.6761C10.8697 16.5307 6.10148 17.8088 3.957 21.5246L6.21881 22.8306C7.64396 20.3621 10.8119 19.5128 13.2804 20.9379H13.2795Z" fill="#3A238C"/>
<path d="M22.3683 23.8451C23.7934 26.3136 22.945 29.4816 20.4765 30.9067L21.7825 33.1685C25.4983 31.0231 26.7755 26.2549 24.6301 22.5391L22.3683 23.8451Z" fill="#3A238C"/>
<path d="M32.32 34L35.952 22.48H38.776L42.408 34H40.424L37.128 23.664H37.56L34.304 34H32.32ZM34.344 31.504V29.704H40.392V31.504H34.344ZM43.8544 34V22.48H48.6144C48.7264 22.48 48.8704 22.4853 49.0464 22.496C49.2224 22.5013 49.385 22.5173 49.5344 22.544C50.201 22.6453 50.7504 22.8667 51.1824 23.208C51.6197 23.5493 51.9424 23.9813 52.1504 24.504C52.3637 25.0213 52.4704 25.5973 52.4704 26.232C52.4704 27.1707 52.233 27.9787 51.7584 28.656C51.2837 29.328 50.5557 29.744 49.5744 29.904L48.7504 29.976H45.7824V34H43.8544ZM50.4704 34L48.1984 29.312L50.1584 28.88L52.6544 34H50.4704ZM45.7824 28.176H48.5344C48.641 28.176 48.761 28.1707 48.8944 28.16C49.0277 28.1493 49.1504 28.128 49.2624 28.096C49.5824 28.016 49.833 27.8747 50.0144 27.672C50.201 27.4693 50.3317 27.24 50.4064 26.984C50.4864 26.728 50.5264 26.4773 50.5264 26.232C50.5264 25.9867 50.4864 25.736 50.4064 25.48C50.3317 25.2187 50.201 24.9867 50.0144 24.784C49.833 24.5813 49.5824 24.44 49.2624 24.36C49.1504 24.328 49.0277 24.3093 48.8944 24.304C48.761 24.2933 48.641 24.288 48.5344 24.288H45.7824V28.176ZM57.1849 34V24.288H53.4569V22.48H62.8409V24.288H59.1129V34H57.1849Z" fill="#3A238C"/>
</svg>
