<svg width="14" height="12" viewBox="0 0 14 12" fill="none" xmlns="http://www.w3.org/2000/svg">
<path d="M13.4166 1.33195V4.83195M13.4166 4.83195H9.91658M13.4166 4.83195L10.7099 2.28862C10.083 1.66137 9.30737 1.20316 8.45545 0.956738C7.60352 0.710319 6.70306 0.683725 5.83809 0.879437C4.97311 1.07515 4.1718 1.48679 3.50894 2.07595C2.84608 2.6651 2.34327 3.41258 2.04742 4.24862M0.583252 10.6653V7.16529M0.583252 7.16529H4.08325M0.583252 7.16529L3.28992 9.70862C3.91685 10.3359 4.69247 10.7941 5.54439 11.0405C6.39631 11.2869 7.29677 11.3135 8.16175 11.1178C9.02673 10.9221 9.82803 10.5104 10.4909 9.92129C11.1538 9.33213 11.6566 8.58466 11.9524 7.74862" stroke="#3A238C" stroke-width="1.5" stroke-linecap="round" stroke-linejoin="round"/>
</svg>
