<svg width="14" height="14" viewBox="0 0 14 14" fill="none" xmlns="http://www.w3.org/2000/svg">
<g clip-path="url(#clip0_40008714_63703)">
<path d="M13.4166 2.33391V5.83391M13.4166 5.83391H9.91658M13.4166 5.83391L10.7099 3.29057C10.083 2.66332 9.30737 2.20511 8.45545 1.95869C7.60352 1.71227 6.70306 1.68568 5.83809 1.88139C4.97311 2.0771 4.1718 2.48874 3.50894 3.0779C2.84608 3.66706 2.34327 4.41453 2.04742 5.25057M0.583252 11.6672V8.16724M0.583252 8.16724H4.08325M0.583252 8.16724L3.28992 10.7106C3.91685 11.3378 4.69247 11.796 5.54439 12.0425C6.39631 12.2889 7.29677 12.3155 8.16175 12.1198C9.02673 11.924 9.82803 11.5124 10.4909 10.9232C11.1538 10.3341 11.6566 9.58661 11.9524 8.75057" stroke="#3A238C" stroke-width="1.5" stroke-linecap="round" stroke-linejoin="round"/>
</g>
<defs>
<clipPath id="clip0_40008714_63703">
<rect width="14" height="14" fill="white"/>
</clipPath>
</defs>
</svg>
