<svg width="14" height="14" viewBox="0 0 14 14" fill="none" xmlns="http://www.w3.org/2000/svg">
<path d="M7 0C10.866 0 14 3.13401 14 7C14 10.866 10.866 14 7 14C3.13401 14 0 10.866 0 7C0 3.13401 3.13401 0 7 0ZM7 9.0498C6.58592 9.0498 6.25021 9.38577 6.25 9.7998C6.25013 10.2139 6.58587 10.5498 7 10.5498H7.00684C7.42097 10.5498 7.7567 10.2139 7.75684 9.7998C7.75662 9.38577 7.42092 9.0498 7.00684 9.0498H7ZM7 3.4502C6.58579 3.4502 6.25 3.78598 6.25 4.2002V7C6.25013 7.4141 6.58587 7.75 7 7.75C7.41413 7.75 7.74987 7.4141 7.75 7V4.2002C7.75 3.78598 7.41421 3.4502 7 3.4502Z" fill="#E5A000"/>
<path d="M7 0C10.866 0 14 3.13401 14 7C14 10.866 10.866 14 7 14C3.13401 14 0 10.866 0 7C0 3.13401 3.13401 0 7 0ZM7 9.0498C6.58592 9.0498 6.25021 9.38577 6.25 9.7998C6.25013 10.2139 6.58587 10.5498 7 10.5498H7.00684C7.42097 10.5498 7.7567 10.2139 7.75684 9.7998C7.75662 9.38577 7.42092 9.0498 7.00684 9.0498H7ZM7 3.4502C6.58579 3.4502 6.25 3.78598 6.25 4.2002V7C6.25013 7.4141 6.58587 7.75 7 7.75C7.41413 7.75 7.74987 7.4141 7.75 7V4.2002C7.75 3.78598 7.41421 3.4502 7 3.4502Z" stroke="#E5A000"/>
</svg>
